<svg version="1.1" id="Layer_1" xmlns="http://www.w3.org/2000/svg" x="0px" y="0px" viewBox="0 0 209 131" fill="currentColor" >
	<path d="M87.2,12.3L87.2,12.3c6,0,9,1.4,12.1,2.9c2.2,1.1,4.6,2.2,7.8,2.8c1.5,0.3,2.9,0.4,4.1,0.4c1.7,0,2.9-0.2,4.1-0.5
		c1.3-0.2,2.5-0.5,4.6-0.5c2.1,0,4.6,0.2,7.8,0.7c6.8,1,12.4,5.2,17.9,9.4c5.5,4.1,10.7,8,16.8,8.6c9.8,1,12.8,2.5,21.7,7.2l0.3,0.2
		c8.3,4.3,12,12.1,12,18c0,7-0.5,10.2-6.1,15.4c-2.4,2.2-4.4,4-6.4,5.7c-3.6,3.1-6.6,5.8-9.8,9.3c-2.8,3.2-3.7,6.4-4.3,9
		c-0.6,2.5-1.1,4.4-3.3,6.3c-4,3.6-12.2,6.4-23.2,7.9c-0.4,0.1-0.9,0.1-1.5,0.1c-3.9,0-9.8-1.3-16-2.6c-7.4-1.6-15.2-3.3-21.5-3.3
		c-0.5,0-0.9,0-1.4,0c-6.1,0.2-11.9,2.8-18,5.6c-7.1,3.2-14.5,6.5-23.2,6.5c-18.9-0.8-20-9.9-21.2-19.6c-0.4-2.9-0.7-5.7-1.6-8
		c-1.9-5-7.2-10.4-12.7-16.2c-5.1-5.3-10.3-10.8-12-14.9c-3.1-7.6-1.4-17.9,4-23.8c2.7-3,11.2-4.9,18.6-6.5
		c6.3-1.4,12.8-2.8,17.5-5.2c3.8-1.9,6.5-4.1,9.1-6.2c4.7-3.8,8.8-7.1,18.4-8.1C83.9,12.4,85.6,12.3,87.2,12.3 M87.2,8.3
		c-1.7,0-3.6,0.1-5.7,0.3c-16.3,1.8-18.9,9.7-29,14.8s-31,5.7-37.3,12.6s-8.6,18.6-4.7,28c3.8,9.4,21.3,22.5,24.6,31
		c3.3,8.6-2.2,29,26.5,30.2c17.3,0,29.4-11.6,41.5-12.1c0.4,0,0.8,0,1.2,0c11.2,0,28.4,5.9,37.5,5.9c0.7,0,1.4,0,2.1-0.1
		c8.6-1.2,19.6-3.7,25.3-8.9s3.2-10.3,7.9-15.6c4.7-5.2,9.2-8.6,16-14.8c6.7-6.2,7.4-10.7,7.4-18.3s-4.7-16.6-14.1-21.5
		c-9.4-4.9-12.8-6.7-23.5-7.8c-10.7-1-19.9-15.9-34.6-18c-3.7-0.5-6.3-0.7-8.4-0.7c-4.5,0-5.8,0.9-8.8,0.9c-0.9,0-2-0.1-3.4-0.3
		C100.9,12.9,98.5,8.3,87.2,8.3L87.2,8.3z"/>
</svg>
